<svg width="50" height="38" viewBox="0 0 50 38" fill="none" xmlns="http://www.w3.org/2000/svg">
<path fill-rule="evenodd" clip-rule="evenodd" d="M20.0945 13.2784C20.0919 12.6131 20.2034 12.0005 19.6546 11.7325C19.0684 11.4458 18.7034 11.9597 18.4005 12.2719L17.4008 13.2733C17.046 13.611 16.7558 13.9309 16.4257 14.244C16.1416 14.5129 15.5783 15.0157 15.5332 15.3483C15.4549 15.9269 16.0224 16.3463 16.5576 16.16C16.9141 16.0349 18.2499 14.4482 18.569 14.2823L18.5749 16.8449C18.5715 19.4636 18.6345 22.8641 18.5664 25.3084L17.3523 25.3255C16.3321 25.3229 16.1347 25.9601 16.3628 26.4255C16.6452 27.0007 17.5386 26.8535 18.2167 26.8518L21.5162 26.8475C22.7542 26.8203 22.5117 25.328 21.6217 25.3289L20.1013 25.3238L20.0945 13.2784ZM30.2014 3.66536C31.2437 4.40894 30.6694 3.99461 32.7632 3.93761C33.5809 3.91549 34.4649 3.93846 35.3004 4.04821C36.1699 4.16222 37.0335 4.31281 37.9141 4.60037C38.3634 4.74756 38.793 4.87943 39.227 5.05129C43.0871 6.57929 46.0923 9.38858 47.8424 13.2937C50.0996 18.3286 49.6742 24.285 46.3832 28.9949C42.6626 34.3208 36.1963 36.7311 30.0772 35.4711C28.4394 35.1342 29.2944 35.0644 28.1671 35.6336C24.489 37.4891 21.2354 38.3084 16.9201 37.8796C14.4663 37.6363 11.9563 36.8162 9.75527 35.6072C9.52384 35.4804 8.87041 35.0516 8.70365 34.998L7.26151 33.9703C7.11006 33.7661 6.03632 32.9025 5.73938 32.6158C-0.105782 26.9632 -1.65258 18.0215 1.86813 10.7558C2.03149 10.418 2.74618 9.21417 2.77937 9.00148L4.03859 7.23355C4.17557 7.12975 4.76093 6.39552 4.92854 6.2109C5.83382 5.21974 6.7391 4.4149 7.82901 3.61516C9.16735 2.63251 10.5091 1.95954 11.9096 1.36909C14.1157 0.438337 17.04 -0.0661781 19.4342 0.00698932C23.4706 0.131204 26.3276 0.900312 30.2014 3.66536ZM40.2199 25.7066C39.7247 25.2268 40.0216 24.4509 40.6555 24.3922C41.035 24.3564 42.1283 25.1553 42.4711 25.4675C42.9697 25.9236 42.6762 26.7812 41.9887 26.7973C41.5795 26.8067 40.5755 26.0503 40.2199 25.7066ZM41.6178 22.2967C41.1634 21.6977 41.6399 20.9482 42.4303 21.103C42.8191 21.1787 44.0341 21.3583 44.3132 21.7207C44.6969 22.2184 44.2392 23.0581 43.4624 22.8871C42.985 22.7825 41.8713 22.6302 41.6178 22.2967ZM38.4382 29.3003C38.2562 29.0672 37.4989 27.9152 37.4555 27.6719C37.3296 26.9751 38.2587 26.4119 38.8075 27.0993C39.0126 27.3563 39.7375 28.4751 39.7715 28.7175C39.8753 29.4645 38.9164 29.9137 38.4382 29.3003ZM40.487 14.3793C40.6266 14.2474 41.936 13.4392 42.101 13.4C42.7919 13.2358 43.3586 14.0849 42.786 14.6822C42.6251 14.8506 41.3276 15.6529 41.1719 15.6937C40.4632 15.8784 39.8642 14.9697 40.487 14.3793ZM41.7964 17.7662C42.0202 17.5595 43.2939 17.4072 43.5823 17.3587C44.3898 17.2252 44.8909 18.1091 44.3038 18.657C44.0341 18.908 42.9272 19.0118 42.5154 19.0816C41.6561 19.227 41.1992 18.3184 41.7964 17.7662ZM39.004 10.6026C39.4941 10.1926 40.2479 10.5729 40.2369 11.2433C40.2326 11.5181 39.3563 12.7662 39.0891 13.0078C38.645 13.4085 37.8095 13.1201 37.8325 12.4216C37.8452 12.0362 38.6722 10.88 39.004 10.6026ZM14.9053 33.4479C14.6977 33.1425 14.6279 32.7247 15.0695 32.3921C15.4473 32.1071 16.4121 32.4431 17.1906 32.5563C17.5344 32.6065 17.9759 32.5648 18.2448 32.9553C18.4694 33.2828 18.3988 33.727 18.0585 33.9864C17.5794 34.3523 15.1784 33.8512 14.9053 33.4479ZM11.3378 10.4027C12.3843 9.27202 14.8066 8.16005 16.2488 7.81889C16.9473 7.65383 19.4138 7.27694 20.2008 7.58067C20.7607 7.79677 20.8781 8.42209 20.4944 8.82026C20.0936 9.23544 19.0344 8.91384 17.8551 9.07464C16.9303 9.20141 16.2207 9.36051 15.2916 9.71954C12.9203 10.6367 12.3741 11.952 11.616 11.6542C11.0604 11.4356 10.9558 10.8153 11.3378 10.4027ZM9.51448 30.8734C7.79242 29.3752 6.90331 28.4138 5.86275 26.6654C5.06978 25.334 4.32531 23.4044 4.11856 22.1155C3.82588 20.2982 3.66848 19.313 3.87438 17.3485C4.47336 11.6202 8.45351 6.6933 13.4649 4.84795C16.3857 3.77256 19.5483 3.388 23.0298 4.34769C30.301 6.35128 34.7559 13.1499 34.1067 20.5245C33.5077 27.3214 27.9867 33.111 21.1572 34.0281C20.8058 34.0758 20.2961 34.2612 19.9813 33.7074C19.7737 33.3432 19.9371 32.7579 20.4161 32.6192C21.2278 32.3844 21.7 32.5758 23.8764 31.7727C25.3253 31.2376 26.8824 30.283 28.2598 29.0451C31.356 26.2622 32.6373 22.3613 32.6578 19.1003C32.7054 11.684 26.9045 5.58983 19.4351 5.32609C11.9393 5.06235 5.61941 11.0442 5.32673 18.2699C5.20251 21.3523 5.98697 24.5819 8.21358 27.4303C11.1796 31.2248 14.1702 31.041 13.3185 32.3836C13.0216 32.8515 12.6072 32.8081 12.1554 32.5784C11.2434 32.1147 10.2998 31.5566 9.51448 30.8734ZM8.3412 32.8464C10.2147 34.4382 13.0505 35.5749 15.1044 36.036C16.7805 36.412 18.2627 36.5124 19.8979 36.4427C24.9808 36.2266 29.5463 33.7491 32.8168 29.6781C34.5066 27.5732 35.5063 25.1111 36.027 22.8684C36.284 21.7624 36.4039 20.7176 36.4465 19.6652C36.4848 18.731 36.4405 17.4174 36.2797 16.5564C36.1904 16.0774 36.1351 15.5397 35.9972 15.014C35.862 14.5001 35.7701 14.1079 35.5795 13.5353C32.8466 5.30482 24.7111 0.508952 16.5397 1.706C11.9691 2.37557 8.20847 4.49913 5.12764 8.36084C1.8341 12.4897 1.13047 17.6701 1.68861 21.4374C2.18549 24.7895 3.3843 27.4686 5.56752 30.1996C6.40047 31.2427 7.26321 31.9309 8.3412 32.8464ZM34.4079 30.0856C33.8608 30.8564 33.1853 31.68 32.5344 32.3087C32.1813 32.649 31.9116 32.9238 31.5653 33.2326C31.2667 33.4998 30.8957 33.755 30.643 34.0128C31.4172 34.3072 33.6268 34.2927 34.4819 34.2221C38.4042 33.8997 42.4482 31.9139 44.959 28.3789C50.3226 20.8282 47.5114 10.9915 39.9859 7.06934C37.3832 5.7132 35.126 5.38649 32.3872 5.49199C32.4442 5.61706 33.3844 6.59716 33.5622 6.81751C36.1172 9.97222 37.339 12.9576 37.858 16.9104C38.3846 20.9184 37.4377 25.8147 34.4079 30.0856Z" fill="white"/>
</svg>
