<svg width="65" height="33" viewBox="0 0 65 33" fill="none" xmlns="http://www.w3.org/2000/svg">
<path fill-rule="evenodd" clip-rule="evenodd" d="M53.6202 21.2109C56.5087 20.7506 58.8545 22.8852 59.1829 25.3287C59.5683 28.1907 57.5323 30.5015 55.093 30.8384C52.138 31.2468 49.8935 29.181 49.5421 26.6883C49.138 23.8211 51.2106 21.5955 53.6202 21.2109ZM56.4756 14.7543C55.4486 15.2393 56.2161 16.6235 57.123 16.2202C57.9866 15.8357 57.517 14.2617 56.4756 14.7543ZM53.1965 14.79C52.8119 15.0036 52.5907 15.326 52.8255 15.8254C52.9812 16.159 53.484 16.4363 53.9256 16.1964C54.8054 15.7174 54.1826 14.243 53.1965 14.79ZM49.9778 14.7484C48.9695 15.2282 49.7149 16.6082 50.6304 16.2185C51.5288 15.8374 51.0013 14.2609 49.9778 14.7484ZM9.39572 14.7671C8.92691 15.0044 8.8112 15.4239 9.02305 15.8476C9.18301 16.1683 9.60928 16.4091 10.0849 16.2015C11.0251 15.7897 10.3818 14.2685 9.39572 14.7671ZM12.6416 14.7679C11.6291 15.2818 12.423 16.6192 13.3359 16.2091C14.2676 15.7914 13.6243 14.2677 12.6416 14.7679ZM15.9173 14.7364C14.9959 15.0921 15.5089 16.6158 16.5282 16.2296C17.4854 15.8671 16.9673 14.3315 15.9173 14.7364ZM46.7336 14.7492C45.7474 15.2112 46.4221 16.6039 47.3861 16.2177C48.3186 15.8442 47.7571 14.2702 46.7336 14.7492ZM6.16852 15.5787C5.95496 15.6868 5.85456 15.6663 5.738 15.9743C5.65207 16.204 5.65207 16.4023 5.76693 16.6516C5.91242 16.968 6.34209 17.248 6.85514 17.0114C7.75702 16.5954 7.15548 15.0802 6.16852 15.5787ZM26.5425 13.0885C25.8304 13.3088 25.4688 14.6777 27.1185 14.6675C27.6809 14.6641 29.9705 14.7373 30.3295 14.5978C30.9489 14.3578 31.2961 13.0434 29.7178 13.0425C29.1511 13.0417 26.9016 12.977 26.5425 13.0885ZM13.2934 24.5C15.3762 23.7939 16.2347 26.8652 14.3603 27.545C12.3209 28.2852 11.2003 25.2104 13.2934 24.5ZM10.5724 26.3845C10.7511 28.0461 12.2434 29.4346 14.1348 29.2457C15.7974 29.0798 17.2131 27.5952 17.0175 25.6631C16.8524 24.0227 15.3124 22.5815 13.4389 22.7985C11.7602 22.9924 10.3674 24.4864 10.5724 26.3845ZM53.9214 24.4694C54.9058 24.181 55.7558 24.8395 55.9378 25.6188C56.165 26.5879 55.5405 27.4131 54.7935 27.5918C52.6638 28.0997 51.9236 25.0547 53.9214 24.4694ZM53.9996 22.807C49.6391 23.4051 50.5742 29.7613 54.773 29.2406C56.4305 29.0347 57.7943 27.5348 57.5833 25.6239C57.4055 24.0176 55.8332 22.5551 53.9996 22.807ZM12.9752 21.2322C15.8884 20.6885 18.2231 22.8529 18.6026 25.2394C19.062 28.1337 17.0192 30.3866 14.6862 30.8111C11.7287 31.3497 9.39061 29.2559 8.99498 26.8397C8.51085 23.8807 10.5409 21.6856 12.9752 21.2322ZM46.2018 9.76871C45.6207 9.87251 34.6611 9.79849 33.7541 9.79849C33.162 9.79849 31.0272 9.87166 30.6086 9.76616C29.7416 9.54921 30.0786 8.21944 30.1475 7.4163C30.2155 6.62677 30.544 2.09635 30.6529 1.71945C31.5675 1.5578 35.5111 1.65649 36.5015 1.78666C38.261 2.01722 39.5662 2.67403 40.668 3.53332C40.9947 3.78856 41.2236 3.97743 41.5086 4.20629C41.7434 4.39431 41.9936 4.72357 42.2182 4.93967C42.9312 5.62455 45.8674 9.09659 46.2018 9.76871ZM11.442 9.79679C11.624 9.46669 11.8325 9.30844 12.0656 9.02343C12.2622 8.78266 12.4936 8.50785 12.6952 8.28325C16.4236 4.14503 17.7858 1.93555 25.0629 1.70669C25.0552 2.2129 24.5584 8.82775 24.4188 9.25824C24.1806 9.99077 23.1341 9.79849 22.2866 9.79849C18.674 9.79849 15.0529 9.76957 11.442 9.79679ZM9.30213 12.2283C9.48761 12.0114 9.83815 11.4337 10.238 11.4124L15.4349 11.4209C17.767 11.4184 20.0992 11.4175 22.4304 11.4175C23.7288 11.4175 24.5303 11.483 25.3258 10.7446C26.0371 10.0844 26.0779 9.35694 26.1724 8.13776C26.2464 7.18233 26.608 2.20865 26.7331 1.68372L28.9606 1.68457C29.0601 2.29288 28.656 5.9504 28.5726 6.83947C28.3786 8.8856 28.1387 10.1728 29.6404 11.0959C30.5499 11.6549 33.692 11.4184 34.9802 11.4209C36.8316 11.4235 38.683 11.4116 40.5344 11.4201C45.8291 11.4439 51.0132 10.9207 55.9523 12.8383C57.0014 13.2459 59.0502 14.1885 59.4986 14.8445C58.4325 16.4984 60.7535 16.2713 60.9339 16.3027C61.9353 16.4797 61.669 17.9762 61.669 19.0278C61.669 20.1815 61.6733 21.3368 61.669 22.4896C61.6648 23.765 61.6231 24.4592 60.8012 24.979C60.7272 24.8625 60.523 23.9964 60.4217 23.7318C60.2652 23.3234 60.1324 23.0418 59.907 22.6623C59.4552 21.9 58.9719 21.4125 58.3814 20.9412C57.1852 19.9858 55.3805 19.2915 53.3819 19.6089C50.7546 20.0258 48.8862 21.8566 48.1612 24.1308C47.7324 25.4759 48.5297 25.2258 46.0878 25.2104C45.3288 25.2062 20.8419 25.2802 20.2344 25.1892C19.8192 23.2145 19.3334 22.3943 18.2529 21.33C15.0614 18.1864 9.61608 19.3962 7.90336 23.3243C7.77233 23.6254 7.65067 24.0832 7.50092 24.3563C6.79133 24.4192 5.58485 24.2159 4.95353 24.0313C4.11632 23.7862 3.66793 23.4042 3.32504 22.784C2.81965 22.7746 1.69485 22.9771 1.64125 22.4122C1.57233 21.6873 2.72181 22.0991 3.18211 21.9145C3.32419 21.5495 3.33525 20.7498 3.42374 20.2801C3.73004 18.656 3.70622 18.7811 4.16481 18.6943C4.42262 18.6449 4.67786 18.5743 4.80804 18.2034C5.01054 17.6274 4.6651 17.4028 4.41496 17.1527C4.63617 16.2772 5.7363 14.6088 6.2034 14.0524C7.10273 12.9821 7.81998 12.2598 9.30213 12.2283ZM0 22.0413V22.7738C0.205901 23.1141 0.198243 23.3319 0.472211 23.6756C1.0261 24.3699 1.69911 24.3571 2.31171 24.4022C3.08426 24.4583 3.20253 25.8341 7.24822 25.9949C7.36904 26.3071 7.36308 26.9826 7.44306 27.3748C7.99865 30.1033 10.3869 32.3026 13.3572 32.4957C16.3759 32.6914 19.0586 30.7831 19.9494 28.0835C20.0711 27.7126 20.1026 27.2208 20.26 26.8856C20.6964 26.7078 43.6842 26.8227 46.3039 26.8371C48.4803 26.849 47.6618 26.4824 48.2463 28.1916C50.0203 33.3822 57.4013 34.0799 60.0397 29.1564C60.2388 28.7846 60.403 28.4341 60.5391 28.0027C60.6676 27.5935 60.6863 27.0634 60.8735 26.7265C60.8735 26.7265 62.5122 26.2467 63.1061 24.5775C63.4711 23.5523 63.2167 21.5767 63.2984 20.3703C64.2598 20.087 64.0879 19.6846 64.0964 18.6671C64.1067 17.5262 64.2088 17.4232 63.2873 17.0565C63.2431 16.204 62.8108 15.5821 62.3106 15.2112C62.1123 15.0648 61.5627 14.8675 61.4291 14.722C61.2113 14.4829 61.1824 14.2328 60.8718 13.9095C59.9886 12.9881 58.943 12.3517 57.5008 11.7272C54.7399 10.5293 51.6718 9.92866 48.3314 9.83933L45.1842 5.7947C44.0713 4.47599 42.9839 3.20662 41.5792 2.18908C37.8083 -0.544486 34.2876 0.0544659 29.3545 0.057869C23.2413 0.0612721 18.657 -0.177798 14.2344 4.12462C13.4253 4.91159 10.3997 8.43639 9.7352 9.21656C9.55993 9.4233 9.34977 9.65981 9.17705 9.88527C9.04347 10.0597 8.7576 10.4008 8.61551 10.5506C8.26497 10.9181 5.27174 10.6995 2.83752 16.6754C2.11772 18.4416 2.2028 18.9495 1.80461 20.3984C1.27454 20.6562 1.10693 20.5481 0.643228 20.9676C0.209304 21.3598 0.289282 21.5095 0 22.0413H0Z" fill="white"/>
</svg>
